# xmcd
#
# Track frame offsets:
# 150
# 21758
# 40081
# 60663
# 85453
# 108834
# 127711
# 148738
# 169829
# 194625
# 212811
# 236800
# 255432
# 272889
# 291645
# 312262
#
# Disc length: 4401 seconds
#
#
# Revision: 6
# Processed by: cddbd v1.5.1PL0 Copyright (c) Steve Scherf et al.
# Submitted via: FreeRIP 2.70 
#
DISCID=f1112f10
DTITLE=Celine Dion - All the wat... a decade of song
DYEAR=2000
DGENRE=Blues
TTITLE0=The power of love
TTITLE1=Beauty and the beast (duet with Peabo Bryson)
TTITLE2=Because you loved me (theme from "up close and personal")
TTITLE3=It's all coming back to me now
TTITLE4=Sola otra vez
TTITLE5=Immortality
TTITLE6=To love you more
TTITLE7=My heart will go on (love theme from "Titanic")
TTITLE8=I'm your angel (Duet with R. Kelly)
TTITLE9=That's the way it is
TTITLE10=If walls could talk
TTITLE11=The first time ever I saw your face
TTITLE12=All the way (Duet with Frank Sinatra)
TTITLE13=Then you look at me
TTITLE14=I want you to need me
TTITLE15=Live for the one you love
EXTD=ID3G:   0
EXTT0=
EXTT1=
EXTT2=
EXTT3=
EXTT4=
EXTT5=
EXTT6=
EXTT7=
EXTT8=
EXTT9=
EXTT10=
EXTT11=
EXTT12=
EXTT13=
EXTT14=
EXTT15=
PLAYORDER=
